<?xml version="1.0" standalone="no"?>
<!DOCTYPE svg PUBLIC "-//W3C//DTD SVG 20010904//EN"
 "http://www.w3.org/TR/2001/REC-SVG-20010904/DTD/svg10.dtd">
<svg version="1.0" xmlns="http://www.w3.org/2000/svg"
 width="700.000000pt" height="700.000000pt" viewBox="0 0 700.000000 700.000000"
 preserveAspectRatio="xMidYMid meet">
<metadata>
Created by potrace 1.14, written by Peter Selinger 2001-2017
</metadata>
<g transform="translate(0.000000,700.000000) scale(0.100000,-0.100000)"
fill="#000000" stroke="none">
<path d="M850 6300 c-87 -22 -163 -62 -229 -118 -55 -47 -128 -149 -151 -212
-36 -100 -36 -115 -34 -2495 1 -2551 -3 -2360 60 -2490 32 -67 147 -190 204
-219 19 -10 64 -30 100 -44 l65 -27 2123 -3 c2296 -2 2181 -5 2299 49 142 65
259 205 299 359 15 58 17 135 18 697 1 347 3 634 6 637 67 70 522 538 650 669
96 98 191 202 211 231 100 147 109 367 25 551 -82 176 -259 364 -401 425 -153
65 -318 71 -453 14 -19 -8 -35 -14 -36 -14 -1 0 -1 336 -1 748 0 411 -3 767
-7 792 -25 149 -106 285 -210 356 -24 16 -45 32 -48 35 -6 8 -68 35 -130 57
-40 14 -261 16 -2170 17 -1965 2 -2131 1 -2190 -15z"/>
</g>
</svg>
