<?xml version="1.0" standalone="no"?><!DOCTYPE svg PUBLIC "-//W3C//DTD SVG 1.1//EN" "http://www.w3.org/Graphics/SVG/1.1/DTD/svg11.dtd"><svg t="1707564672040" class="icon" viewBox="0 0 1114 1024" version="1.1" xmlns="http://www.w3.org/2000/svg" p-id="5319" xmlns:xlink="http://www.w3.org/1999/xlink" width="217.578125" height="200"><path d="M99.006512 0h742.757209a98.946977 98.946977 0 0 1 99.006512 99.006512v825.986976a98.946977 98.946977 0 0 1-99.006512 99.006512H99.006512A98.946977 98.946977 0 0 1 0 924.993488V99.006512A98.946977 98.946977 0 0 1 99.006512 0z" fill="#3AB3F0" p-id="5320"></path><path d="M544.625116 470.563721H231.173953a41.317209 41.317209 0 0 0 0 82.574884H544.744186a41.317209 41.317209 0 1 0 0-82.574884z m-131.988837 214.325581H231.173953a41.317209 41.317209 0 1 0 0 82.574884h181.462326a41.317209 41.317209 0 1 0 0-82.574884z m297.07907-429.008372H231.173953a41.317209 41.317209 0 0 0 0 82.574884h478.541396a41.317209 41.317209 0 1 0 0-82.574884z" fill="#FFFFFF" p-id="5321"></path><path d="M1111.456744 467.586977a107.817674 107.817674 0 0 0-6.727442-22.027907v-0.714419a175.985116 175.985116 0 0 0-29.767442-44.651163 145.741395 145.741395 0 0 0-38.04279-31.613023 118.057674 118.057674 0 0 0-21.015814-8.573023 114.723721 114.723721 0 0 0-27.386047-4.703256h-3.750697a95.732093 95.732093 0 0 0-60.606512 21.789767l-0.595349 0.47628-0.595349 0.476279c-4.822326 4.107907-10.597209 9.346977-16.788837 15.419535s-10.418605 10.061395-14.407442 13.931162l-4.107907 3.988838-2.976744 3.095813-31.970232 30.481861 1.250232 1.250232-2.619535 2.738605-112.104186 115.914419-42.269767 43.63907-38.042791 39.293023c-11.906977 11.906977-21.373023 22.146977-29.231628 30.48186l-12.56186 13.15721-1.726512 1.845581a134.489302 134.489302 0 0 0-17.860465 22.027907 145.086512 145.086512 0 0 0-10.299535 19.646512 175.925581 175.925581 0 0 0-9.227907 23.813953c-2.976744 9.049302-5.953488 19.051163-9.108837 29.767442s-5.953488 20.420465-8.453954 30.124651a248.08186 248.08186 0 0 0-6.489302 29.112558 76.204651 76.204651 0 0 0 13.454884 60.427907 65.131163 65.131163 0 0 0 53.105116 24.528372c3.631628 0 7.44186 0 11.430698-0.595349h2.024186c5.953488-1.012093 14.169302-2.857674 25.71907-5.953488 9.823256-2.619535 20.301395-5.953488 31.970232-9.704186s21.373023-7.44186 31.493954-11.192558 19.051163-7.739535 25.36186-10.835349a116.271628 116.271628 0 0 0 23.813954-14.824186c5.00093-3.869767 9.585116-7.858605 13.693023-11.549767s7.739535-7.203721 16.074418-15.776745 16.788837-17.562791 27.981396-29.231628c10.061395-10.716279 21.789767-22.623256 36.971163-37.92372l0.357209-0.35721v-0.357209l41.674418-43.63907 111.925582-115.676279 36.197209-37.447442 0.357209-0.357209c3.214884-2.857674 6.727442-5.953488 10.299535-9.942326 2.262326-2.262326 4.822326-5.00093 7.858605-7.858604s7.620465-7.56093 11.906977-11.906977l0.773953-0.773954 0.773954-0.773953a96.922791 96.922791 0 0 0 18.515349-30.481861 93.588837 93.588837 0 0 0 5.953488-32.982325 114.545116 114.545116 0 0 0-2.202791-25.004651z" fill="#FFFFFF" p-id="5322"></path><path d="M872.84093 703.464186l-41.674418 43.63907a3753.257674 3753.257674 0 0 0-65.190698 67.453023c-7.322791 7.620465-11.906977 11.906977-13.03814 12.91907a186.522791 186.522791 0 0 1-11.906976 10.180465 67.214884 67.214884 0 0 1-14.050233 8.692093c-4.822326 2.500465-11.906977 5.477209-21.373023 9.227907s-19.170233 7.084651-29.767442 10.478139-20.003721 6.370233-29.231628 8.811163-16.074419 4.107907-20.658605 4.822326a46.496744 46.496744 0 0 1-5.596279 0.357209 15.717209 15.717209 0 0 1-13.038139-4.584186 26.373953 26.373953 0 0 1-2.619535-19.884651 197.417674 197.417674 0 0 1 4.941395-21.908837c2.619535-9.585116 5.35814-19.408372 8.334884-29.767442s5.953488-19.765581 8.573023-28.338605a116.509767 116.509767 0 0 1 6.846512-17.860465 94.422326 94.422326 0 0 1 7.084651-13.693023 87.575814 87.575814 0 0 1 11.192558-13.693023l14.645582-15.419535c7.620465-8.096744 17.146047-17.860465 28.755348-29.767442l38.042791-39.293023 42.269768-43.63907 112.104186-115.914419 97.518139 101.209303z m187.23721-197.298605a40.84093 40.84093 0 0 1-8.334884 13.454884c-4.107907 4.346047-7.977674 8.096744-11.192558 11.311628l-8.573024 8.573023c-2.738605 2.857674-5.35814 5.35814-7.858604 7.560931l-97.51814-100.733024c4.226977-3.988837 9.227907-8.692093 14.824186-14.288372s10.597209-9.942326 14.288372-13.157209a47.627907 47.627907 0 0 1 15.062326-8.334884 45.96093 45.96093 0 0 1 13.931163-2.262325h1.488372a62.094884 62.094884 0 0 1 14.526511 2.381395 77.395349 77.395349 0 0 1 11.906977 4.822325 96.327442 96.327442 0 0 1 24.230698 20.658605 125.67814 125.67814 0 0 1 20.658605 30.95814 58.344186 58.344186 0 0 1 3.333953 11.311628 68.524651 68.524651 0 0 1 1.369302 13.454883 38.102326 38.102326 0 0 1-2.143255 14.288372z" fill="#309EEF" opacity=".48" p-id="5323"></path></svg>