<?xml version="1.0" standalone="no"?>
<!DOCTYPE svg PUBLIC "-//W3C//DTD SVG 20010904//EN"
 "http://www.w3.org/TR/2001/REC-SVG-20010904/DTD/svg10.dtd">
<svg version="1.0" xmlns="http://www.w3.org/2000/svg"
 width="700.000000pt" height="700.000000pt" viewBox="0 0 700.000000 700.000000"
 preserveAspectRatio="xMidYMid meet">
<metadata>
Created by potrace 1.14, written by Peter Selinger 2001-2017
</metadata>
<g transform="translate(0.000000,700.000000) scale(0.100000,-0.100000)"
fill="#000000" stroke="none">
<path d="M577 6619 c-88 -14 -181 -107 -196 -196 -4 -21 -7 -1347 -6 -2948 l0
-2910 31 -55 c35 -63 92 -107 157 -124 32 -8 827 -11 2958 -11 l2914 0 54 30
c62 34 98 77 120 143 15 42 16 335 16 2967 -1 2806 -2 2921 -19 2955 -34 65
-67 100 -119 127 l-52 27 -2911 1 c-1601 0 -2927 -3 -2947 -6z"/>
</g>
</svg>
